<?xml version="1.0" standalone="no"?>
<!DOCTYPE svg PUBLIC "-//W3C//DTD SVG 20010904//EN"
 "http://www.w3.org/TR/2001/REC-SVG-20010904/DTD/svg10.dtd">
<svg version="1.0" xmlns="http://www.w3.org/2000/svg"
 width="150.000000pt" height="150.000000pt" viewBox="0 0 150.000000 150.000000"
 preserveAspectRatio="xMidYMid meet">
<metadata>
Created by potrace 1.14, written by Peter Selinger 2001-2017
</metadata>
<g transform="translate(0.000000,150.000000) scale(0.100000,-0.100000)"
fill="#000000" stroke="none">
<path d="M645 1447 c-238 -40 -433 -188 -538 -409 -56 -118 -60 -157 -61 -593
l-1 -400 199 0 198 -1 43 66 43 66 222 -1 221 0 43 -65 43 -65 199 0 199 0 0
370 c0 465 -3 493 -66 630 -127 279 -448 453 -744 402z m433 -304 c48 -6 97
-45 107 -85 3 -13 5 -179 3 -370 l-3 -347 -30 -31 c-16 -17 -42 -34 -58 -38
-16 -4 -179 -7 -362 -7 l-332 1 -37 24 c-19 14 -40 38 -46 54 -6 17 -10 163
-10 365 0 282 3 341 15 365 15 29 44 55 74 67 20 7 623 10 679 2z"/>
<path d="M459 1002 c-17 -11 -19 -26 -19 -113 0 -141 -2 -139 128 -139 59 0
113 4 121 9 21 14 24 226 4 243 -21 17 -209 17 -234 0z"/>
<path d="M822 1009 c-27 -10 -29 -21 -27 -137 1 -78 5 -106 16 -113 7 -5 62
-9 121 -9 130 0 128 -2 128 138 0 79 -3 102 -16 113 -17 14 -188 20 -222 8z"/>
<path d="M479 557 c-67 -52 -33 -157 51 -157 83 0 117 106 51 157 -9 7 -32 12
-51 12 -19 0 -42 -5 -51 -12z"/>
<path d="M907 540 c-32 -38 -29 -85 8 -117 59 -52 154 -5 141 69 -3 13 -5 26
-5 30 -2 21 -48 48 -82 48 -29 0 -43 -7 -62 -30z"/>
</g>
</svg>
